<svg xmlns="http://www.w3.org/2000/svg"  viewBox="0 0 64 64" width="64px" height="64px"><linearGradient id="YsnqyBM8ls8tH0FYT0U4la" x1="51.5" x2="51.5" y1="13.703" y2="46.704" gradientUnits="userSpaceOnUse" spreadMethod="reflect"><stop offset="0" stop-color="#8cc5fc"/><stop offset="1" stop-color="#d5a8fb"/></linearGradient><path fill="url(#YsnqyBM8ls8tH0FYT0U4la)" d="M55.086,33H46v6h4v8h-5v7h4.338C54.114,54,58,50.142,58,45.4v-9.486 C58,34.311,56.689,33,55.086,33z"/><linearGradient id="YsnqyBM8ls8tH0FYT0U4lb" x1="51.5" x2="51.5" y1="12.083" y2="45.085" gradientUnits="userSpaceOnUse" spreadMethod="reflect"><stop offset="0" stop-color="#8cc5fc"/><stop offset="1" stop-color="#d5a8fb"/></linearGradient><path fill="url(#YsnqyBM8ls8tH0FYT0U4lb)" d="M49.336,9H45v9h3v4c0,0.552,0.448,1,1,1h6.1c1.602,0,2.9-1.298,2.9-2.9v-2.49 C58,12.862,54.113,9,49.336,9z"/><linearGradient id="YsnqyBM8ls8tH0FYT0U4lc" x1="24" x2="24" y1="7.427" y2="50.236" gradientUnits="userSpaceOnUse" spreadMethod="reflect"><stop offset="0" stop-color="#6bc5fd"/><stop offset="1" stop-color="#e4a9fd"/></linearGradient><path fill="url(#YsnqyBM8ls8tH0FYT0U4lc)" d="M21.417,10H18v8h3v14h-3v11h4v10h8V19.583C30,12.843,26.157,10,21.417,10z"/><linearGradient id="YsnqyBM8ls8tH0FYT0U4ld" x1="45.5" x2="45.5" y1="9.875" y2="54.628" gradientUnits="userSpaceOnUse" spreadMethod="reflect"><stop offset="0" stop-color="#426dfa"/><stop offset="1" stop-color="#aa27f9"/></linearGradient><path fill="url(#YsnqyBM8ls8tH0FYT0U4ld)" d="M49,25h6.1c1.602,0,2.9-1.298,2.9-2.9v-4.49C58,12.862,54.113,9,49.336,9h-7.679 C36.883,9,33,12.858,33,17.6v28.8c0,4.742,3.883,8.6,8.657,8.6h7.681C54.114,55,58,51.142,58,46.4V35.914 C58,34.311,56.689,33,55.086,33H46c-0.552,0-1,0.448-1,1v6c0,0.552,0.448,1,1,1h3v4h-6V19h5v5C48,24.552,48.448,25,49,25z M42,17 c-0.552,0-1,0.448-1,1v28c0,0.552,0.448,1,1,1h8c0.552,0,1-0.448,1-1v-6c0-0.552-0.448-1-1-1h-3v-4h8.1c0.497,0,0.9,0.403,0.9,0.9 v10.5c0,3.639-2.991,6.6-6.666,6.6h-7.668C37.991,53,35,50.039,35,46.4V17.61c0-3.645,2.991-6.61,6.666-6.61h7.668 C53.009,11,56,13.966,56,17.61v4.476C56,22.589,55.589,23,55.086,23H50v-5c0-0.552-0.448-1-1-1H42z"/><linearGradient id="YsnqyBM8ls8tH0FYT0U4le" x1="42.266" x2="42.266" y1="9.875" y2="54.628" gradientUnits="userSpaceOnUse" spreadMethod="reflect"><stop offset="0" stop-color="#426dfa"/><stop offset="1" stop-color="#aa27f9"/></linearGradient><path fill="url(#YsnqyBM8ls8tH0FYT0U4le)" d="M39,45.531V41h-2v4.531C37,48.547,39.453,51,42.469,51h5.063v-2h-5.063 C40.556,49,39,47.444,39,45.531z"/><g><linearGradient id="YsnqyBM8ls8tH0FYT0U4lf" x1="18.5" x2="18.5" y1="10.375" y2="54.486" gradientUnits="userSpaceOnUse" spreadMethod="reflect"><stop offset="0" stop-color="#426dfa"/><stop offset="1" stop-color="#aa27f9"/></linearGradient><path fill="url(#YsnqyBM8ls8tH0FYT0U4lf)" d="M22.333,9h-7.667C9.888,9,6,12.858,6,17.6v34.5C6,53.699,7.308,55,8.917,55h4.179 c1.608,0,2.917-1.301,2.917-2.9L16,44h5v8.1c0,1.599,1.308,2.9,2.917,2.9h4.167C29.692,55,31,53.699,31,52.1V17.6 C31,12.858,27.112,9,22.333,9z M29,52.083C29,52.588,28.588,53,28.083,53H23.9c-0.497,0-0.9-0.403-0.9-0.9V43c0-0.552-0.448-1-1-1 h-7c-0.552,0-1,0.448-1,1v9.083C14,52.588,13.588,53,13.083,53H8.9C8.403,53,8,52.597,8,52.1V17.6c0-3.639,2.991-6.6,6.667-6.6 h7.667C26.009,11,29,13.961,29,17.6V52.083z"/><linearGradient id="YsnqyBM8ls8tH0FYT0U4lg" x1="18.5" x2="18.5" y1="10.375" y2="54.486" gradientUnits="userSpaceOnUse" spreadMethod="reflect"><stop offset="0" stop-color="#426dfa"/><stop offset="1" stop-color="#aa27f9"/></linearGradient><path fill="url(#YsnqyBM8ls8tH0FYT0U4lg)" d="M20.25,17h-3.5C15.233,17,14,18.271,14,19.833v10.333C14,31.729,15.233,33,16.75,33h3.5 c1.517,0,2.75-1.271,2.75-2.833V19.833C23,18.271,21.767,17,20.25,17z M21,30.167C21,30.626,20.664,31,20.25,31h-3.5 C16.336,31,16,30.626,16,30.167V19.833C16,19.374,16.336,19,16.75,19h3.5c0.414,0,0.75,0.374,0.75,0.833V30.167z"/><linearGradient id="YsnqyBM8ls8tH0FYT0U4lh" x1="14.766" x2="14.766" y1="10.375" y2="54.486" gradientUnits="userSpaceOnUse" spreadMethod="reflect"><stop offset="0" stop-color="#426dfa"/><stop offset="1" stop-color="#aa27f9"/></linearGradient><path fill="url(#YsnqyBM8ls8tH0FYT0U4lh)" d="M19.531,15v-2h-4.063C12.453,13,10,15.454,10,18.469V24h2v-5.531 C12,16.557,13.556,15,15.469,15H19.531z"/></g></svg>